<svg xmlns="http://www.w3.org/2000/svg" xmlns:xlink="http://www.w3.org/1999/xlink" width="500" zoomAndPan="magnify" viewBox="0 0 375 374.999991" height="500" preserveAspectRatio="xMidYMid meet" version="1.0"><defs><g/></defs><path fill="#100f0d" d="M 37.554688 177.738281 C 34.125 177.738281 30.699219 179.246094 28.59375 182.015625 C 25.191406 186.484375 27.09375 192.101562 27.113281 192.160156 C 28.621094 196.484375 32.664062 199.507812 37.175781 199.6875 C 42.160156 199.890625 46.667969 196.75 48.160156 192.070312 C 49.6875 187.265625 47.59375 181.871094 43.175781 179.246094 C 41.457031 178.226562 39.507812 177.738281 37.554688 177.738281 Z M 37.621094 203.285156 C 37.425781 203.285156 37.230469 203.28125 37.035156 203.273438 C 31.058594 203.035156 25.710938 199.042969 23.726562 193.339844 C 23.617188 193.035156 21.179688 185.824219 25.738281 179.84375 C 30.183594 174 38.652344 172.382812 45.007812 176.164062 C 50.84375 179.628906 53.609375 186.78125 51.578125 193.160156 C 49.65625 199.1875 43.972656 203.285156 37.621094 203.285156 " fill-opacity="1" fill-rule="nonzero"/><path fill="#100f0d" d="M 37.113281 169.867188 C 31.394531 169.867188 25.769531 171.933594 21.855469 175.878906 C 16.125 181.65625 14.921875 190.558594 18.277344 202.332031 C 18.582031 203.390625 19.382812 206.207031 27.34375 218.929688 C 30.683594 224.269531 34.167969 229.570312 37.71875 234.710938 C 42.421875 228.519531 46.648438 221.984375 50.308594 215.265625 C 57.511719 202.03125 60.636719 195.863281 59.253906 188.375 C 58.929688 186.621094 56.890625 177.636719 48.441406 172.816406 C 44.964844 170.832031 41.015625 169.867188 37.113281 169.867188 Z M 37.5625 240.761719 L 36.171875 238.777344 C 32.105469 232.960938 28.109375 226.925781 24.300781 220.832031 C 16.070312 207.675781 15.230469 204.730469 14.828125 203.316406 C 11.089844 190.199219 12.597656 180.121094 19.308594 173.351562 C 26.996094 165.601562 40.285156 164.03125 50.21875 169.699219 C 60.046875 175.308594 62.410156 185.699219 62.78125 187.722656 C 64.453125 196.78125 60.546875 203.953125 53.457031 216.980469 C 49.324219 224.578125 44.480469 231.9375 39.054688 238.855469 L 37.5625 240.761719 " fill-opacity="1" fill-rule="nonzero"/><path fill="#100f0d" d="M 336.675781 60.382812 C 333.242188 60.382812 329.820312 61.890625 327.714844 64.660156 C 324.3125 69.121094 326.214844 74.746094 326.234375 74.804688 C 327.738281 79.128906 331.785156 82.152344 336.296875 82.332031 C 341.277344 82.527344 345.789062 79.394531 347.277344 74.714844 C 348.808594 69.910156 346.710938 64.515625 342.296875 61.890625 C 340.578125 60.871094 338.625 60.382812 336.675781 60.382812 Z M 336.738281 85.929688 C 336.542969 85.929688 336.351562 85.925781 336.15625 85.917969 C 330.179688 85.679688 324.832031 81.6875 322.84375 75.984375 C 322.738281 75.679688 320.304688 68.464844 324.859375 62.484375 C 329.308594 56.644531 337.769531 55.03125 344.128906 58.808594 C 349.964844 62.277344 352.726562 69.421875 350.699219 75.804688 C 348.78125 81.832031 343.089844 85.929688 336.738281 85.929688 " fill-opacity="1" fill-rule="nonzero"/><path fill="#100f0d" d="M 336.234375 52.515625 C 330.511719 52.515625 324.890625 54.578125 320.976562 58.523438 C 315.246094 64.300781 314.039062 73.199219 317.398438 84.976562 C 317.703125 86.035156 318.503906 88.847656 326.464844 101.574219 C 329.804688 106.917969 333.289062 112.214844 336.839844 117.355469 C 341.539062 111.164062 345.769531 104.628906 349.425781 97.90625 C 356.628906 84.675781 359.753906 78.507812 358.375 71.015625 C 358.050781 69.265625 356.007812 60.277344 347.5625 55.460938 C 344.085938 53.476562 340.136719 52.515625 336.234375 52.515625 Z M 336.683594 123.402344 L 335.292969 121.417969 C 331.226562 115.605469 327.230469 109.570312 323.421875 103.476562 C 315.191406 90.324219 314.351562 87.375 313.949219 85.960938 C 310.207031 72.84375 311.714844 62.761719 318.429688 55.996094 C 326.117188 48.246094 339.40625 46.675781 349.339844 52.34375 C 359.164062 57.949219 361.527344 68.339844 361.902344 70.367188 C 363.570312 79.421875 359.667969 86.597656 352.578125 99.621094 C 348.441406 107.222656 343.597656 114.582031 338.175781 121.496094 L 336.683594 123.402344 " fill-opacity="1" fill-rule="nonzero"/><path fill="#100f0d" d="M 44.132812 242.179688 C 46.183594 239.59375 48.40625 237.148438 50.78125 234.851562 C 51.589844 234.070312 51.625 232.585938 50.78125 231.808594 C 49.90625 231.007812 48.601562 230.972656 47.734375 231.808594 C 45.359375 234.101562 43.140625 236.550781 41.085938 239.136719 C 40.71875 239.601562 40.457031 240.039062 40.457031 240.65625 C 40.457031 241.1875 40.691406 241.816406 41.085938 242.179688 C 41.496094 242.558594 42.035156 242.835938 42.609375 242.808594 C 43.140625 242.785156 43.785156 242.617188 44.132812 242.179688 " fill-opacity="1" fill-rule="nonzero"/><path fill="#100f0d" d="M 56.304688 229.75 C 59.277344 227.261719 62.28125 224.816406 65.320312 222.410156 C 65.722656 222.089844 65.949219 221.375 65.949219 220.886719 C 65.949219 220.359375 65.714844 219.730469 65.320312 219.367188 C 64.910156 218.988281 64.371094 218.707031 63.796875 218.734375 C 63.1875 218.761719 62.746094 218.992188 62.273438 219.367188 C 59.238281 221.769531 56.230469 224.21875 53.261719 226.707031 C 52.394531 227.433594 52.457031 229.011719 53.261719 229.75 C 54.183594 230.597656 55.382812 230.523438 56.304688 229.75 " fill-opacity="1" fill-rule="nonzero"/><path fill="#100f0d" d="M 72.917969 216.558594 C 73.574219 216.011719 74.234375 215.386719 74.953125 214.921875 C 74.820312 215.007812 74.707031 215.109375 74.90625 214.960938 C 74.992188 214.894531 75.082031 214.828125 75.167969 214.761719 C 75.339844 214.628906 75.515625 214.5 75.6875 214.367188 C 76.058594 214.089844 76.433594 213.816406 76.808594 213.546875 C 78.242188 212.507812 79.710938 211.519531 81.210938 210.578125 C 82.160156 209.980469 82.625 208.632812 81.980469 207.632812 C 81.367188 206.679688 80.054688 206.21875 79.035156 206.863281 C 75.835938 208.871094 72.785156 211.105469 69.871094 213.511719 C 69 214.234375 69.070312 215.820312 69.871094 216.558594 C 70.796875 217.40625 71.988281 217.328125 72.917969 216.558594 " fill-opacity="1" fill-rule="nonzero"/><path fill="#100f0d" d="M 90.285156 206.046875 C 91.125 205.546875 91.984375 205.074219 92.855469 204.632812 C 93.292969 204.414062 93.734375 204.199219 94.175781 203.996094 C 94.425781 203.878906 94.671875 203.769531 94.921875 203.65625 C 95.019531 203.613281 95.121094 203.574219 95.21875 203.527344 C 95.597656 203.363281 94.980469 203.625 95.230469 203.523438 C 97.074219 202.78125 98.945312 202.136719 100.871094 201.636719 C 101.960938 201.351562 102.730469 200.085938 102.375 198.988281 C 102.011719 197.867188 100.894531 197.179688 99.726562 197.484375 C 95.65625 198.542969 91.726562 200.183594 88.113281 202.328125 C 87.144531 202.90625 86.707031 204.292969 87.339844 205.273438 C 87.96875 206.25 89.25 206.664062 90.285156 206.046875 " fill-opacity="1" fill-rule="nonzero"/><path fill="#100f0d" d="M 110.738281 198.171875 C 110.964844 198.070312 111.191406 197.96875 111.417969 197.871094 C 111.660156 197.761719 111.050781 198.019531 111.433594 197.867188 C 111.535156 197.824219 111.636719 197.78125 111.738281 197.742188 C 112.226562 197.550781 112.714844 197.371094 113.210938 197.203125 C 114.171875 196.875 115.148438 196.59375 116.136719 196.359375 C 116.621094 196.246094 117.105469 196.144531 117.589844 196.054688 C 117.710938 196.03125 119.050781 195.84375 119.054688 195.816406 C 118.78125 195.851562 118.726562 195.855469 118.890625 195.835938 C 118.945312 195.832031 119 195.824219 119.054688 195.816406 C 119.191406 195.800781 119.324219 195.785156 119.460938 195.769531 C 119.707031 195.742188 119.953125 195.71875 120.199219 195.699219 C 120.71875 195.65625 121.242188 195.625 121.761719 195.609375 C 122.886719 195.566406 123.96875 194.644531 123.914062 193.453125 C 123.867188 192.324219 122.96875 191.257812 121.761719 191.300781 C 117.175781 191.46875 112.738281 192.554688 108.566406 194.453125 C 107.539062 194.921875 107.207031 196.492188 107.792969 197.398438 C 108.480469 198.460938 109.640625 198.671875 110.738281 198.171875 " fill-opacity="1" fill-rule="nonzero"/><path fill="#100f0d" d="M 130.890625 195.066406 C 134.144531 194.820312 137.386719 194.429688 140.609375 193.910156 C 141.726562 193.734375 142.445312 192.285156 142.113281 191.265625 C 141.722656 190.054688 140.660156 189.570312 139.46875 189.761719 C 138.707031 189.882812 137.949219 189.996094 137.1875 190.105469 C 137.113281 190.113281 136.515625 190.203125 137.058594 190.121094 C 136.882812 190.148438 136.707031 190.167969 136.53125 190.191406 C 136.152344 190.238281 135.769531 190.285156 135.386719 190.332031 C 133.890625 190.507812 132.390625 190.648438 130.890625 190.761719 C 129.769531 190.847656 128.683594 191.691406 128.738281 192.914062 C 128.785156 194.007812 129.6875 195.160156 130.890625 195.066406 " fill-opacity="1" fill-rule="nonzero"/><path fill="#100f0d" d="M 149.4375 193.761719 C 152.714844 193.671875 155.988281 193.445312 159.25 193.078125 C 159.839844 193.011719 160.335938 192.882812 160.773438 192.449219 C 161.144531 192.074219 161.425781 191.460938 161.402344 190.925781 C 161.355469 189.867188 160.449219 188.636719 159.25 188.773438 C 155.988281 189.140625 152.714844 189.367188 149.4375 189.457031 C 148.3125 189.484375 147.230469 190.425781 147.285156 191.609375 C 147.335938 192.75 148.230469 193.792969 149.4375 193.761719 " fill-opacity="1" fill-rule="nonzero"/><path fill="#100f0d" d="M 168.242188 192.449219 C 170.515625 192.636719 172.847656 192.125 175.066406 191.671875 C 177.199219 191.238281 179.308594 190.707031 181.394531 190.078125 C 182.472656 189.753906 183.261719 188.554688 182.898438 187.429688 C 182.546875 186.339844 181.40625 185.578125 180.25 185.925781 C 178.21875 186.535156 176.167969 187.058594 174.089844 187.484375 C 173.070312 187.695312 172.046875 187.890625 171.015625 188.046875 C 170.960938 188.054688 170.582031 188.09375 170.875 188.070312 C 171.199219 188.039062 170.710938 188.085938 170.648438 188.09375 C 170.390625 188.121094 170.132812 188.144531 169.875 188.160156 C 169.328125 188.195312 168.785156 188.1875 168.242188 188.144531 C 167.117188 188.050781 166.039062 189.199219 166.089844 190.296875 C 166.144531 191.542969 167.035156 192.347656 168.242188 192.449219 " fill-opacity="1" fill-rule="nonzero"/><path fill="#100f0d" d="M 191.375 188.058594 C 195.796875 187.046875 200.082031 185.496094 204.152344 183.5 C 205.164062 183.003906 205.519531 181.480469 204.921875 180.554688 C 204.253906 179.515625 203.0625 179.25 201.976562 179.78125 C 201.503906 180.015625 201.023438 180.242188 200.542969 180.464844 C 200.289062 180.578125 200.035156 180.691406 199.78125 180.804688 C 199.652344 180.859375 199.523438 180.914062 199.398438 180.972656 C 199.167969 181.070312 199.296875 181.019531 199.449219 180.949219 C 198.46875 181.40625 197.429688 181.761719 196.410156 182.125 C 194.386719 182.835938 192.320312 183.429688 190.230469 183.90625 C 189.128906 184.15625 188.378906 185.480469 188.726562 186.554688 C 189.097656 187.703125 190.199219 188.328125 191.375 188.058594 " fill-opacity="1" fill-rule="nonzero"/><path fill="#100f0d" d="M 210.1875 181.90625 C 213.785156 181.019531 217.261719 179.535156 220.382812 177.535156 C 221.328125 176.929688 221.800781 175.59375 221.152344 174.59375 C 220.542969 173.644531 219.222656 173.167969 218.207031 173.820312 C 216.738281 174.757812 215.203125 175.554688 213.617188 176.265625 C 213.335938 176.390625 213.96875 176.121094 213.6875 176.238281 C 213.585938 176.277344 213.488281 176.320312 213.390625 176.359375 C 213.191406 176.4375 212.992188 176.515625 212.792969 176.59375 C 212.390625 176.742188 211.988281 176.886719 211.585938 177.023438 C 210.746094 177.300781 209.898438 177.546875 209.042969 177.757812 C 207.949219 178.027344 207.1875 179.316406 207.539062 180.402344 C 207.90625 181.539062 209.015625 182.195312 210.1875 181.90625 " fill-opacity="1" fill-rule="nonzero"/><path fill="#100f0d" d="M 228.058594 173.410156 C 232.046875 171.253906 235.765625 168.597656 239.136719 165.566406 C 239.976562 164.8125 239.960938 163.28125 239.136719 162.523438 C 238.238281 161.699219 236.988281 161.71875 236.09375 162.523438 C 235.292969 163.242188 234.472656 163.9375 233.636719 164.609375 C 233.429688 164.773438 233.226562 164.96875 233.003906 165.109375 C 233.230469 164.964844 233.191406 164.960938 232.992188 165.113281 C 232.882812 165.199219 232.777344 165.277344 232.667969 165.359375 C 232.238281 165.679688 231.804688 165.996094 231.363281 166.304688 C 229.605469 167.542969 227.773438 168.671875 225.882812 169.695312 C 224.894531 170.230469 224.496094 171.683594 225.113281 172.636719 C 225.761719 173.644531 226.996094 173.984375 228.058594 173.410156 " fill-opacity="1" fill-rule="nonzero"/><path fill="#100f0d" d="M 243.097656 160.789062 C 245.75 157.839844 247.953125 154.492188 249.523438 150.84375 C 249.761719 150.292969 249.910156 149.792969 249.742188 149.1875 C 249.605469 148.6875 249.21875 148.144531 248.753906 147.902344 C 247.824219 147.410156 246.28125 147.566406 245.804688 148.671875 C 245.070312 150.386719 244.199219 152.039062 243.195312 153.613281 C 242.699219 154.386719 242.171875 155.136719 241.621094 155.875 C 241.46875 156.082031 241.582031 155.933594 241.671875 155.816406 C 241.59375 155.921875 241.507812 156.023438 241.425781 156.125 C 241.296875 156.289062 241.164062 156.453125 241.03125 156.613281 C 240.710938 156.996094 240.382812 157.375 240.050781 157.746094 C 239.296875 158.582031 239.164062 159.976562 240.050781 160.789062 C 240.871094 161.542969 242.292969 161.683594 243.097656 160.789062 " fill-opacity="1" fill-rule="nonzero"/><path fill="#100f0d" d="M 247.550781 134.023438 C 247.664062 135.640625 247.667969 137.257812 247.554688 138.871094 C 247.523438 139.273438 247.488281 139.675781 247.445312 140.078125 C 247.429688 140.25 247.410156 140.421875 247.386719 140.59375 C 247.375 140.710938 247.359375 140.824219 247.34375 140.9375 C 247.382812 140.652344 247.386719 140.632812 247.351562 140.878906 C 247.226562 141.679688 247.085938 142.472656 246.914062 143.265625 C 246.675781 144.363281 247.242188 145.644531 248.417969 145.914062 C 249.503906 146.160156 250.808594 145.585938 251.066406 144.410156 C 251.804688 141.003906 252.09375 137.5 251.855469 134.023438 C 251.78125 132.902344 250.921875 131.816406 249.703125 131.871094 C 248.601562 131.921875 247.46875 132.820312 247.550781 134.023438 " fill-opacity="1" fill-rule="nonzero"/><path fill="#100f0d" d="M 241.136719 119.570312 C 241.683594 120.160156 242.210938 120.765625 242.71875 121.394531 C 242.835938 121.542969 242.949219 121.695312 243.070312 121.839844 C 242.996094 121.75 242.824219 121.519531 242.992188 121.742188 C 243.0625 121.839844 243.132812 121.933594 243.207031 122.027344 C 243.445312 122.351562 243.675781 122.679688 243.90625 123.011719 C 244.816406 124.339844 245.625 125.734375 246.339844 127.175781 C 246.839844 128.191406 248.355469 128.546875 249.285156 127.949219 C 250.320312 127.28125 250.589844 126.085938 250.054688 125.003906 C 248.53125 121.910156 246.527344 119.054688 244.183594 116.523438 C 243.414062 115.695312 241.902344 115.691406 241.136719 116.523438 C 240.324219 117.410156 240.320312 118.6875 241.136719 119.570312 " fill-opacity="1" fill-rule="nonzero"/><path fill="#100f0d" d="M 225.425781 108.316406 C 225.933594 108.492188 226.4375 108.675781 226.9375 108.871094 C 227.164062 108.957031 227.386719 109.046875 227.609375 109.136719 C 227.734375 109.1875 227.863281 109.230469 227.984375 109.289062 C 227.742188 109.171875 227.746094 109.1875 227.988281 109.292969 C 228.949219 109.707031 229.894531 110.152344 230.824219 110.632812 C 232.683594 111.589844 234.472656 112.679688 236.1875 113.882812 C 237.109375 114.53125 238.617188 114.078125 239.128906 113.109375 C 239.714844 112.007812 239.34375 110.859375 238.359375 110.164062 C 234.734375 107.617188 230.75 105.621094 226.570312 104.164062 C 225.507812 103.792969 224.167969 104.585938 223.921875 105.667969 C 223.648438 106.867188 224.289062 107.917969 225.425781 108.316406 " fill-opacity="1" fill-rule="nonzero"/><path fill="#100f0d" d="M 219.996094 102.253906 C 216.695312 101.675781 213.363281 101.257812 210.015625 101.011719 C 208.890625 100.929688 207.8125 102.058594 207.863281 103.164062 C 207.917969 104.402344 208.8125 105.226562 210.015625 105.316406 C 211.566406 105.429688 213.109375 105.578125 214.648438 105.769531 C 214.851562 105.792969 215.054688 105.820312 215.257812 105.84375 C 215.378906 105.859375 215.914062 105.90625 215.382812 105.859375 C 215.761719 105.894531 216.136719 105.96875 216.511719 106.023438 C 217.292969 106.140625 218.074219 106.265625 218.851562 106.40625 C 219.4375 106.503906 219.984375 106.496094 220.511719 106.1875 C 220.957031 105.925781 221.382812 105.414062 221.5 104.902344 C 221.738281 103.855469 221.183594 102.460938 219.996094 102.253906 " fill-opacity="1" fill-rule="nonzero"/><path fill="#100f0d" d="M 202.226562 99.859375 C 198.574219 99.914062 194.941406 100.222656 191.324219 100.730469 C 190.828125 100.796875 190.273438 101.308594 190.035156 101.71875 C 189.765625 102.179688 189.652344 102.859375 189.816406 103.375 C 189.988281 103.898438 190.308594 104.402344 190.808594 104.664062 C 191.355469 104.953125 191.859375 104.964844 192.464844 104.878906 C 192.582031 104.863281 192.699219 104.847656 192.816406 104.832031 C 192.53125 104.871094 192.515625 104.871094 192.765625 104.839844 C 192.96875 104.8125 193.171875 104.789062 193.375 104.761719 C 193.8125 104.707031 194.246094 104.660156 194.683594 104.613281 C 195.5 104.527344 196.316406 104.453125 197.136719 104.390625 C 198.828125 104.261719 200.527344 104.191406 202.226562 104.164062 C 203.351562 104.148438 204.433594 103.1875 204.378906 102.011719 C 204.328125 100.859375 203.433594 99.84375 202.226562 99.859375 " fill-opacity="1" fill-rule="nonzero"/><path fill="#100f0d" d="M 184.042969 101.53125 C 178.648438 102.480469 173.625 104.863281 169.359375 108.273438 C 168.5 108.960938 167.675781 109.699219 166.894531 110.472656 C 166.09375 111.269531 166.039062 112.734375 166.894531 113.519531 C 167.757812 114.3125 169.085938 114.363281 169.9375 113.519531 C 170.589844 112.871094 171.269531 112.253906 171.976562 111.667969 C 172.167969 111.507812 172.359375 111.351562 172.550781 111.199219 C 172.601562 111.160156 172.652344 111.125 172.703125 111.082031 C 172.714844 111.074219 172.332031 111.363281 172.523438 111.222656 C 172.644531 111.128906 172.769531 111.035156 172.890625 110.945312 C 173.375 110.585938 173.871094 110.242188 174.375 109.914062 C 175.476562 109.195312 176.625 108.550781 177.8125 107.984375 C 178.121094 107.835938 178.429688 107.695312 178.742188 107.558594 C 178.820312 107.523438 178.898438 107.484375 178.980469 107.453125 C 178.960938 107.460938 178.632812 107.597656 178.859375 107.507812 C 179.042969 107.433594 179.222656 107.359375 179.40625 107.289062 C 180.050781 107.039062 180.703125 106.8125 181.363281 106.605469 C 182.617188 106.21875 183.894531 105.910156 185.1875 105.683594 C 186.300781 105.488281 187.027344 104.070312 186.691406 103.035156 C 186.304688 101.839844 185.234375 101.324219 184.042969 101.53125 " fill-opacity="1" fill-rule="nonzero"/><path fill="#100f0d" d="M 162.804688 116.863281 C 160.914062 121.558594 160.1875 126.785156 160.757812 131.820312 C 160.90625 133.121094 161.109375 134.414062 161.398438 135.691406 C 161.648438 136.789062 162.976562 137.542969 164.046875 137.195312 C 165.199219 136.824219 165.820312 135.722656 165.550781 134.546875 C 165.417969 133.964844 165.300781 133.378906 165.203125 132.789062 C 165.175781 132.625 165.148438 132.460938 165.125 132.296875 C 165.03125 131.683594 165.160156 132.625 165.113281 132.222656 C 165.066406 131.859375 165.027344 131.492188 164.992188 131.128906 C 164.847656 129.492188 164.835938 127.847656 164.964844 126.214844 C 165 125.757812 165.050781 125.300781 165.105469 124.847656 C 165.136719 124.601562 165.132812 124.628906 165.09375 124.925781 C 165.109375 124.820312 165.125 124.710938 165.140625 124.601562 C 165.175781 124.390625 165.207031 124.179688 165.246094 123.96875 C 165.375 123.230469 165.535156 122.492188 165.722656 121.765625 C 166.046875 120.484375 166.464844 119.230469 166.957031 118.007812 C 167.152344 117.523438 166.992188 116.777344 166.742188 116.347656 C 166.480469 115.902344 165.96875 115.476562 165.453125 115.359375 C 164.207031 115.074219 163.257812 115.738281 162.804688 116.863281 " fill-opacity="1" fill-rule="nonzero"/><path fill="#100f0d" d="M 162.472656 140.933594 C 163.625 144.753906 165.398438 148.394531 167.757812 151.613281 C 168.097656 152.082031 168.464844 152.445312 169.042969 152.605469 C 169.558594 152.746094 170.242188 152.683594 170.699219 152.386719 C 171.597656 151.808594 172.183594 150.414062 171.472656 149.441406 C 170.367188 147.925781 169.378906 146.324219 168.539062 144.644531 C 168.339844 144.246094 168.144531 143.839844 167.960938 143.429688 C 167.90625 143.308594 167.851562 143.1875 167.800781 143.066406 C 167.777344 143.015625 167.636719 142.683594 167.75 142.960938 C 167.867188 143.234375 167.730469 142.902344 167.707031 142.851562 C 167.65625 142.730469 167.609375 142.605469 167.558594 142.484375 C 167.210938 141.597656 166.902344 140.699219 166.625 139.789062 C 166.300781 138.710938 165.101562 137.921875 163.980469 138.285156 C 162.890625 138.636719 162.128906 139.777344 162.472656 140.933594 " fill-opacity="1" fill-rule="nonzero"/><path fill="#100f0d" d="M 170.839844 156.210938 C 173.277344 158.355469 175.714844 160.503906 178.152344 162.652344 C 179 163.394531 180.378906 163.546875 181.199219 162.652344 C 181.945312 161.835938 182.101562 160.402344 181.199219 159.605469 C 178.757812 157.460938 176.320312 155.3125 173.882812 153.164062 C 173.039062 152.421875 171.65625 152.273438 170.839844 153.164062 C 170.089844 153.980469 169.933594 155.414062 170.839844 156.210938 " fill-opacity="1" fill-rule="nonzero"/><path fill="#100f0d" d="M 182.710938 165.34375 C 185.382812 167.007812 188.371094 168.210938 191.453125 168.847656 C 192.554688 169.070312 193.832031 168.527344 194.101562 167.34375 C 194.347656 166.265625 193.777344 164.9375 192.597656 164.695312 C 191.167969 164.398438 189.761719 163.988281 188.40625 163.449219 C 188.277344 163.398438 187.695312 163.101562 188.246094 163.386719 C 188.117188 163.320312 187.972656 163.269531 187.84375 163.210938 C 187.488281 163.050781 187.136719 162.882812 186.789062 162.707031 C 186.140625 162.375 185.503906 162.011719 184.886719 161.628906 C 183.929688 161.03125 182.472656 161.390625 181.9375 162.398438 C 181.382812 163.457031 181.6875 164.707031 182.710938 165.34375 " fill-opacity="1" fill-rule="nonzero"/><path fill="#100f0d" d="M 196.410156 170.113281 C 199.285156 170.828125 202.230469 171.269531 205.1875 171.453125 C 206.3125 171.519531 207.390625 170.410156 207.339844 169.296875 C 207.285156 168.074219 206.394531 167.21875 205.1875 167.144531 C 204.507812 167.101562 203.832031 167.046875 203.15625 166.976562 C 202.816406 166.941406 202.480469 166.898438 202.140625 166.859375 C 201.976562 166.835938 202.039062 166.847656 202.328125 166.882812 C 202.222656 166.867188 202.121094 166.855469 202.015625 166.839844 C 201.859375 166.816406 201.703125 166.792969 201.550781 166.769531 C 200.207031 166.5625 198.875 166.289062 197.554688 165.964844 C 196.464844 165.691406 195.167969 166.3125 194.90625 167.464844 C 194.652344 168.578125 195.242188 169.824219 196.410156 170.113281 " fill-opacity="1" fill-rule="nonzero"/><path fill="#100f0d" d="M 210.507812 171.074219 C 214.097656 171.996094 217.75 172.628906 221.433594 173.011719 C 222.558594 173.128906 223.636719 171.941406 223.589844 170.859375 C 223.53125 169.59375 222.640625 168.832031 221.433594 168.707031 C 220.976562 168.660156 220.519531 168.609375 220.0625 168.554688 C 220.003906 168.546875 219.34375 168.464844 219.664062 168.503906 C 219.984375 168.542969 219.324219 168.457031 219.265625 168.449219 C 218.410156 168.324219 217.558594 168.1875 216.710938 168.03125 C 215.011719 167.726562 213.328125 167.351562 211.65625 166.921875 C 210.566406 166.640625 209.269531 167.277344 209.007812 168.425781 C 208.75 169.546875 209.34375 170.773438 210.507812 171.074219 " fill-opacity="1" fill-rule="nonzero"/><path fill="#100f0d" d="M 231.738281 174.847656 C 235.542969 175.429688 239.363281 175.902344 243.195312 176.25 C 244.320312 176.355469 245.398438 175.1875 245.347656 174.097656 C 245.292969 172.847656 244.402344 172.054688 243.195312 171.945312 C 241.40625 171.785156 239.617188 171.59375 237.828125 171.378906 C 237.390625 171.324219 236.953125 171.269531 236.515625 171.214844 C 236.28125 171.183594 236.046875 171.152344 235.8125 171.121094 C 236.359375 171.195312 235.707031 171.105469 235.597656 171.089844 C 234.691406 170.964844 233.785156 170.832031 232.882812 170.691406 C 232.289062 170.601562 231.761719 170.597656 231.222656 170.910156 C 230.777344 171.171875 230.351562 171.683594 230.234375 172.195312 C 230 173.226562 230.546875 174.664062 231.738281 174.847656 " fill-opacity="1" fill-rule="nonzero"/><path fill="#100f0d" d="M 249.105469 176.574219 C 253.132812 176.8125 257.167969 176.859375 261.199219 176.714844 C 262.324219 176.675781 263.40625 175.753906 263.351562 174.5625 C 263.300781 173.429688 262.40625 172.367188 261.199219 172.410156 C 257.167969 172.554688 253.132812 172.503906 249.105469 172.269531 C 247.976562 172.203125 246.902344 173.308594 246.953125 174.421875 C 247.007812 175.644531 247.898438 176.503906 249.105469 176.574219 " fill-opacity="1" fill-rule="nonzero"/><path fill="#100f0d" d="M 266.625 176.636719 C 270.050781 176.058594 273.414062 175.15625 276.671875 173.949219 C 277.722656 173.558594 278.554688 172.472656 278.175781 171.300781 C 277.839844 170.269531 276.65625 169.378906 275.527344 169.796875 C 272.269531 171.003906 268.90625 171.902344 265.480469 172.484375 C 264.367188 172.671875 263.644531 174.101562 263.976562 175.132812 C 264.367188 176.335938 265.433594 176.835938 266.625 176.636719 " fill-opacity="1" fill-rule="nonzero"/><path fill="#100f0d" d="M 283.128906 170.855469 C 285.664062 169.429688 288.105469 167.851562 290.449219 166.132812 C 290.917969 165.789062 291.28125 165.421875 291.4375 164.84375 C 291.582031 164.332031 291.519531 163.644531 291.222656 163.1875 C 290.644531 162.289062 289.25 161.699219 288.277344 162.414062 C 285.933594 164.132812 283.488281 165.710938 280.957031 167.136719 C 279.976562 167.691406 279.5625 169.117188 280.183594 170.082031 C 280.824219 171.074219 282.078125 171.445312 283.128906 170.855469 " fill-opacity="1" fill-rule="nonzero"/><path fill="#100f0d" d="M 294.425781 162.28125 C 296.730469 159.945312 298.832031 157.414062 300.746094 154.746094 C 301.050781 154.316406 301.09375 153.578125 300.960938 153.085938 C 300.824219 152.589844 300.4375 152.046875 299.972656 151.800781 C 299.472656 151.539062 298.867188 151.402344 298.3125 151.582031 C 297.75 151.765625 297.371094 152.09375 297.027344 152.574219 C 296.816406 152.867188 296.601562 153.160156 296.386719 153.449219 C 296.269531 153.605469 296.152344 153.765625 296.035156 153.921875 C 295.980469 153.992188 295.925781 154.0625 295.871094 154.132812 C 295.699219 154.359375 295.894531 154.074219 295.964844 154.015625 C 295.691406 154.246094 295.46875 154.640625 295.242188 154.921875 C 294.976562 155.25 294.710938 155.574219 294.4375 155.894531 C 293.464844 157.046875 292.441406 158.160156 291.378906 159.238281 C 290.589844 160.039062 290.519531 161.492188 291.378906 162.28125 C 292.234375 163.066406 293.582031 163.136719 294.425781 162.28125 " fill-opacity="1" fill-rule="nonzero"/><path fill="#100f0d" d="M 303.023438 150.609375 C 304.757812 148.03125 306.4375 145.417969 308.058594 142.769531 C 308.648438 141.808594 308.300781 140.359375 307.285156 139.824219 C 306.234375 139.269531 304.96875 139.570312 304.339844 140.597656 C 302.71875 143.246094 301.042969 145.859375 299.308594 148.4375 C 298.675781 149.371094 299.097656 150.863281 300.082031 151.378906 C 301.167969 151.953125 302.351562 151.609375 303.023438 150.609375 " fill-opacity="1" fill-rule="nonzero"/><path fill="#100f0d" d="M 310.980469 139.878906 C 312.167969 138.480469 313.472656 137.1875 314.882812 136.019531 C 315.050781 135.878906 315.222656 135.738281 315.394531 135.605469 C 315.472656 135.542969 315.550781 135.484375 315.625 135.421875 C 315.222656 135.773438 315.496094 135.523438 315.597656 135.445312 C 315.96875 135.167969 316.34375 134.898438 316.730469 134.636719 C 317.492188 134.109375 318.285156 133.625 319.09375 133.167969 C 320.074219 132.617188 320.488281 131.191406 319.867188 130.222656 C 319.226562 129.230469 317.96875 128.859375 316.917969 129.449219 C 313.53125 131.355469 310.453125 133.871094 307.9375 136.832031 C 307.210938 137.691406 307.035156 139.046875 307.9375 139.878906 C 308.738281 140.613281 310.203125 140.792969 310.980469 139.878906 " fill-opacity="1" fill-rule="nonzero"/><path fill="#100f0d" d="M 325.035156 130.839844 C 326.710938 130.148438 328.425781 129.566406 330.175781 129.097656 C 331.039062 128.867188 331.910156 128.664062 332.78125 128.492188 C 333.21875 128.402344 333.660156 128.324219 334.097656 128.25 C 334.320312 128.214844 334.539062 128.179688 334.757812 128.148438 C 334.871094 128.128906 334.980469 128.117188 335.089844 128.101562 C 335.40625 128.050781 334.554688 128.167969 335.097656 128.097656 C 335.691406 128.023438 336.179688 127.910156 336.621094 127.46875 C 336.996094 127.09375 337.273438 126.484375 337.25 125.945312 C 337.203125 124.902344 336.296875 123.640625 335.097656 123.792969 C 331.242188 124.289062 327.492188 125.207031 323.890625 126.6875 C 323.347656 126.910156 322.910156 127.152344 322.601562 127.679688 C 322.332031 128.140625 322.21875 128.820312 322.386719 129.335938 C 322.710938 130.335938 323.917969 131.296875 325.035156 130.839844 " fill-opacity="1" fill-rule="nonzero"/><g fill="#ff9100" fill-opacity="1"><g transform="translate(9.571815, 307.421555)"><g><path d="M 13.976562 0 L 30.863281 0 L 30.863281 -29.113281 L 43.964844 -29.113281 L 43.964844 -41.925781 L 0.875 -41.925781 L 0.875 -29.113281 L 13.976562 -29.113281 Z M 13.976562 0 "/></g></g></g><g fill="#ff9100" fill-opacity="1"><g transform="translate(55.741497, 307.421555)"><g><path d="M 42.449219 1.046875 C 46.410156 1.046875 50.949219 -0.175781 53.339844 -1.921875 L 51.242188 -8.792969 C 50.601562 -8.386719 49.496094 -8.035156 48.679688 -8.035156 C 47.222656 -8.035156 46.351562 -8.792969 45.710938 -9.898438 L 43.90625 -12.808594 C 43.089844 -14.558594 42.042969 -15.722656 40.410156 -16.1875 L 40.410156 -16.246094 C 46.992188 -18.109375 50.660156 -22.359375 50.660156 -28.125 C 50.660156 -37.035156 44.3125 -41.925781 32.785156 -41.925781 L 2.910156 -41.925781 L 2.910156 0 L 19.796875 0 L 19.796875 -13.394531 L 23.410156 -13.394531 C 25.855469 -13.394531 27.601562 -12.113281 28.824219 -10.015625 L 30.453125 -6.871094 C 32.609375 -2.5625 36.277344 1.046875 42.449219 1.046875 Z M 19.796875 -23 L 19.796875 -31.445312 L 28.53125 -31.445312 C 31.910156 -31.445312 33.773438 -29.929688 33.773438 -27.25 C 33.773438 -24.515625 31.910156 -23 28.472656 -23 Z M 19.796875 -23 "/></g></g></g><g fill="#ff9100" fill-opacity="1"><g transform="translate(110.702577, 307.421555)"><g><path d="M 2.910156 0 L 19.738281 0 L 19.738281 -41.925781 L 2.910156 -41.925781 Z M 2.910156 0 "/></g></g></g><g fill="#ff9100" fill-opacity="1"><g transform="translate(134.690016, 307.421555)"><g><path d="M 2.910156 0 L 19.796875 0 L 19.796875 -11.9375 L 31.734375 -11.9375 C 43.265625 -11.9375 50.078125 -17.46875 50.078125 -26.785156 C 50.078125 -36.277344 43.324219 -41.925781 31.910156 -41.925781 L 2.910156 -41.925781 Z M 19.796875 -22.128906 L 19.796875 -31.734375 L 27.078125 -31.734375 C 30.976562 -31.734375 33.191406 -30.046875 33.191406 -26.960938 C 33.191406 -23.875 30.976562 -22.128906 27.078125 -22.128906 Z M 19.796875 -22.128906 "/></g></g></g><g fill="#ff9100" fill-opacity="1"><g transform="translate(187.264019, 307.421555)"><g><path d="M 2.910156 0 L 39.015625 0 L 39.015625 -13.101562 L 19.796875 -13.101562 L 19.796875 -41.925781 L 2.910156 -41.925781 Z M 2.910156 0 "/></g></g></g><g fill="#ff9100" fill-opacity="1"><g transform="translate(228.776019, 307.421555)"><g><path d="M 2.910156 0 L 19.738281 0 L 19.738281 -41.925781 L 2.910156 -41.925781 Z M 2.910156 0 "/></g></g></g><g fill="#ff9100" fill-opacity="1"><g transform="translate(252.763451, 307.421555)"><g><path d="M 2.910156 0 L 18.632812 0 L 18.632812 -24.457031 L 18.75 -24.457031 L 34.648438 0 L 54.152344 0 L 54.152344 -41.925781 L 38.429688 -41.925781 L 38.429688 -17.644531 L 38.375 -17.644531 L 22.417969 -41.925781 L 2.910156 -41.925781 Z M 2.910156 0 "/></g></g></g><g fill="#ff9100" fill-opacity="1"><g transform="translate(311.159564, 307.421555)"><g><path d="M -0.0585938 0 L 17.410156 0 L 19.507812 -6.40625 L 34.703125 -6.40625 L 36.742188 0 L 54.269531 0 L 37.324219 -41.925781 L 17.234375 -41.925781 Z M 22.128906 -16.304688 L 27.078125 -30.917969 L 27.191406 -30.917969 L 32.027344 -16.304688 Z M 22.128906 -16.304688 "/></g></g></g></svg>