<svg xmlns="http://www.w3.org/2000/svg" width="500" zoomAndPan="magnify" viewBox="0 0 375 375" height="500" preserveAspectRatio="xMidYMid meet" xmlns:v="https://vecta.io/nano"><g fill="#100f0d"><path d="M37.555 177.738c-3.43 0-6.855 1.508-8.961 4.277-3.402 4.469-1.5 10.086-1.48 10.145 1.508 4.324 5.551 7.348 10.063 7.527 4.984.203 9.492-2.937 10.984-7.617 1.527-4.805-.566-10.199-4.984-12.824-1.719-1.02-3.668-1.508-5.621-1.508zm.066 25.547a14.66 14.66 0 0 1-.586-.012c-5.977-.238-11.324-4.23-13.309-9.934-.109-.305-2.547-7.516 2.012-13.496 4.445-5.844 12.914-7.461 19.27-3.68 5.836 3.465 8.602 10.617 6.57 16.996-1.922 6.027-7.605 10.125-13.957 10.125m-.508-33.417c-5.719 0-11.344 2.066-15.258 6.012-5.73 5.777-6.934 14.68-3.578 26.453.305 1.059 1.105 3.875 9.066 16.598 3.34 5.34 6.824 10.641 10.375 15.781a154.14 154.14 0 0 0 12.59-19.445c7.203-13.234 10.328-19.402 8.945-26.891-.324-1.754-2.363-10.738-10.812-15.559-3.477-1.984-7.426-2.949-11.328-2.949zm.449 70.895l-1.391-1.984c-4.066-5.816-8.062-11.852-11.871-17.945-8.23-13.156-9.07-16.102-9.473-17.516-3.738-13.117-2.23-23.195 4.48-29.965 7.688-7.75 20.977-9.32 30.91-3.652 9.828 5.609 12.191 16 12.563 18.023 1.672 9.059-2.234 16.23-9.324 29.258-4.133 7.598-8.977 14.957-14.402 21.875l-1.492 1.906M336.676 60.383c-3.434 0-6.855 1.508-8.961 4.277-3.402 4.461-1.5 10.086-1.48 10.145 1.504 4.324 5.551 7.348 10.063 7.527 4.98.195 9.492-2.937 10.98-7.617 1.531-4.805-.566-10.199-4.98-12.824-1.719-1.02-3.672-1.508-5.621-1.508zm.063 25.547c-.195 0-.387-.004-.582-.012-5.977-.238-11.324-4.23-13.312-9.934-.105-.305-2.539-7.52 2.016-13.5 4.449-5.84 12.91-7.453 19.27-3.676 5.836 3.469 8.598 10.613 6.57 16.996-1.918 6.027-7.609 10.125-13.961 10.125"/><path d="M336.234 52.516c-5.723 0-11.344 2.063-15.258 6.008-5.73 5.777-6.937 14.676-3.578 26.453.305 1.059 1.105 3.871 9.066 16.598a413.11 413.11 0 0 0 10.375 15.781c4.699-6.191 8.93-12.727 12.586-19.449 7.203-13.23 10.328-19.398 8.949-26.891-.324-1.75-2.367-10.738-10.812-15.555-3.477-1.984-7.426-2.945-11.328-2.945zm.449 70.887l-1.391-1.984a417.69 417.69 0 0 1-11.871-17.941c-8.23-13.152-9.07-16.102-9.473-17.516-3.742-13.117-2.234-23.199 4.48-29.965 7.688-7.75 20.977-9.32 30.91-3.652 9.824 5.605 12.188 15.996 12.563 18.023 1.668 9.055-2.234 16.23-9.324 29.254a157.8 157.8 0 0 1-14.402 21.875l-1.492 1.906M44.133 242.18c2.051-2.586 4.273-5.031 6.648-7.328.809-.781.844-2.266 0-3.043-.875-.801-2.18-.836-3.047 0a75.26 75.26 0 0 0-6.648 7.328c-.367.465-.629.902-.629 1.52 0 .531.234 1.16.629 1.523.41.379.949.656 1.523.629.531-.023 1.176-.191 1.523-.629"/><path d="M56.305 229.75l9.016-7.34c.402-.32.629-1.035.629-1.523 0-.527-.234-1.156-.629-1.52-.41-.379-.949-.66-1.523-.633-.609.027-1.051.258-1.523.633l-9.012 7.34c-.867.727-.805 2.305 0 3.043.922.848 2.121.773 3.043 0m16.612-13.191l2.035-1.637c-.133.086-.246.188-.047.039l.262-.199.52-.395 1.121-.82 4.402-2.969c.949-.598 1.414-1.945.77-2.945-.613-.953-1.926-1.414-2.945-.77-3.199 2.008-6.25 4.242-9.164 6.648-.871.723-.801 2.309 0 3.047.926.848 2.117.77 3.047 0m17.366-10.511l2.57-1.414 1.32-.637.746-.34.297-.129c.379-.164-.238.098.012-.004 1.844-.742 3.715-1.387 5.641-1.887 1.09-.285 1.859-1.551 1.504-2.648-.363-1.121-1.48-1.809-2.648-1.504-4.07 1.059-8 2.699-11.613 4.844-.969.578-1.406 1.965-.773 2.945s1.91 1.391 2.945.773m20.452-7.874l.68-.301c.242-.109-.367.148.016-.004l.305-.125 1.473-.539 2.926-.844 1.453-.305 1.465-.238-.164.02.164-.02.406-.047.738-.07 1.563-.09c1.125-.043 2.207-.965 2.152-2.156-.047-1.129-.945-2.195-2.152-2.152-4.586.168-9.023 1.254-13.195 3.152-1.027.469-1.359 2.039-.773 2.945.688 1.063 1.848 1.273 2.945.773m20.151-3.105l9.719-1.156c1.117-.176 1.836-1.625 1.504-2.645-.391-1.211-1.453-1.695-2.645-1.504l-2.281.344-.129.016-.527.07-1.145.141-4.496.43c-1.121.086-2.207.93-2.152 2.152.047 1.094.949 2.246 2.152 2.152m18.547-1.304l9.813-.684c.59-.066 1.086-.195 1.523-.629.371-.375.652-.988.629-1.523-.047-1.059-.953-2.289-2.152-2.152l-9.812.684c-1.125.027-2.207.969-2.152 2.152.051 1.141.945 2.184 2.152 2.152m18.803-1.313c2.273.188 4.605-.324 6.824-.777l6.328-1.594c1.078-.324 1.867-1.523 1.504-2.648-.352-1.09-1.492-1.852-2.648-1.504l-6.16 1.559-3.074.563c-.055.008-.434.047-.141.023.324-.031-.164.016-.227.023l-.773.066c-.547.035-1.09.027-1.633-.016-1.125-.094-2.203 1.055-2.152 2.152.055 1.246.945 2.051 2.152 2.152m23.133-4.389c4.422-1.012 8.707-2.562 12.777-4.559 1.012-.496 1.367-2.02.77-2.945-.668-1.039-1.859-1.305-2.945-.773-.473.234-.953.461-1.434.684l-.762.34-.383.168c-.23.098-.102.047.051-.023-.98.457-2.02.813-3.039 1.176a56.47 56.47 0 0 1-6.18 1.781c-1.102.25-1.852 1.574-1.504 2.648a2.2 2.2 0 0 0 2.648 1.504m18.814-6.154a34.1 34.1 0 0 0 10.195-4.371c.945-.605 1.418-1.941.77-2.941-.609-.949-1.93-1.426-2.945-.773-1.469.938-3.004 1.734-4.59 2.445-.281.125.352-.145.07-.027-.102.039-.199.082-.297.121l-.598.234-1.207.43a34.29 34.29 0 0 1-2.543.734c-1.094.27-1.855 1.559-1.504 2.645.367 1.137 1.477 1.793 2.648 1.504m17.872-8.497c3.988-2.156 7.707-4.812 11.078-7.844.84-.754.824-2.285 0-3.043-.898-.824-2.148-.805-3.043 0-.801.719-1.621 1.414-2.457 2.086-.207.164-.41.359-.633.5.227-.145.188-.148-.012.004-.109.086-.215.164-.324.246l-1.305.945c-1.758 1.238-3.59 2.367-5.48 3.391-.988.535-1.387 1.988-.77 2.941.648 1.008 1.883 1.348 2.945.773m15.04-12.62c2.652-2.949 4.855-6.297 6.426-9.945.238-.551.387-1.051.219-1.656-.137-.5-.523-1.043-.988-1.285-.93-.492-2.473-.336-2.949.77-.734 1.715-1.605 3.367-2.609 4.941a38.97 38.97 0 0 1-1.574 2.262c-.152.207-.039.059.051-.059-.078.105-.164.207-.246.309l-.395.488c-.32.383-.648.762-.98 1.133-.754.836-.887 2.23 0 3.043.82.754 2.242.895 3.047 0m4.451-26.767a34.71 34.71 0 0 1 .004 4.848l-.109 1.207-.059.516-.043.344.008-.059-.437 2.387c-.238 1.098.328 2.379 1.504 2.648 1.086.246 2.391-.328 2.648-1.504.738-3.406 1.027-6.91.789-10.387-.074-1.121-.934-2.207-2.152-2.152-1.102.051-2.234.949-2.152 2.152m-6.415-14.453l1.582 1.824.352.445-.078-.098.215.285.699.984a34.45 34.45 0 0 1 2.434 4.164c.5 1.016 2.016 1.371 2.945.773 1.035-.668 1.305-1.863.77-2.945-1.523-3.094-3.527-5.949-5.871-8.48-.77-.828-2.281-.832-3.047 0-.812.887-.816 2.164 0 3.047m-15.712-11.253l1.512.555.672.266.375.152c-.242-.117-.238-.102.004.004l2.836 1.34a45.99 45.99 0 0 1 5.363 3.25c.922.648 2.43.195 2.941-.773.586-1.102.215-2.25-.77-2.945-3.625-2.547-7.609-4.543-11.789-6-1.062-.371-2.402.422-2.648 1.504-.273 1.199.367 2.25 1.504 2.648m-5.43-6.063a100.63 100.63 0 0 0-9.98-1.242c-1.125-.082-2.203 1.047-2.152 2.152.055 1.238.949 2.063 2.152 2.152l4.633.453.609.074.125.016c.379.035.754.109 1.129.164l2.34.383c.586.098 1.133.09 1.66-.219.445-.262.871-.773.988-1.285.238-1.047-.316-2.441-1.504-2.648m-17.769-2.395c-3.652.055-7.285.363-10.902.871-.496.066-1.051.578-1.289.988-.27.461-.383 1.141-.219 1.656.172.523.492 1.027.992 1.289.547.289 1.051.301 1.656.215l.352-.047c-.285.039-.301.039-.051.008l.609-.078 1.309-.148 2.453-.223c1.691-.129 3.391-.199 5.09-.227 1.125-.016 2.207-.977 2.152-2.152-.051-1.152-.945-2.168-2.152-2.152"/><path d="M184.043 101.531c-5.395.949-10.418 3.332-14.684 6.742a31.34 31.34 0 0 0-2.465 2.199c-.801.797-.855 2.262 0 3.047.863.793 2.191.844 3.043 0a30.47 30.47 0 0 1 2.039-1.852l.574-.469c.051-.039.102-.074.152-.117.012-.008-.371.281-.18.141l.367-.277c.484-.359.98-.703 1.484-1.031a29.65 29.65 0 0 1 3.438-1.93 28.38 28.38 0 0 1 .93-.426c.078-.035.156-.074.238-.105-.02.008-.348.145-.121.055l.547-.219a31.34 31.34 0 0 1 1.957-.684 31.32 31.32 0 0 1 3.824-.922c1.113-.195 1.84-1.613 1.504-2.648-.387-1.195-1.457-1.711-2.648-1.504m-21.237 15.332c-1.891 4.695-2.617 9.922-2.047 14.957.148 1.301.352 2.594.641 3.871.25 1.098 1.578 1.852 2.648 1.504 1.152-.371 1.773-1.473 1.504-2.648a29.84 29.84 0 0 1-.348-1.758l-.078-.492c-.094-.613.035.328-.012-.074a33.55 33.55 0 0 1-.121-1.094 29.43 29.43 0 0 1-.027-4.914c.035-.457.086-.914.141-1.367.031-.246.027-.219-.012.078l.047-.324.105-.633a28.36 28.36 0 0 1 .477-2.203 29.38 29.38 0 0 1 1.234-3.758c.195-.484.035-1.23-.215-1.66-.262-.445-.773-.871-1.289-.988-1.246-.285-2.195.379-2.648 1.504m-.332 24.07c1.152 3.82 2.926 7.461 5.285 10.68.34.469.707.832 1.285.992.516.141 1.199.078 1.656-.219.898-.578 1.484-1.973.773-2.945a33.88 33.88 0 0 1-2.934-4.797 31.52 31.52 0 0 1-.578-1.215l-.16-.363c-.023-.051-.164-.383-.051-.105s-.02-.059-.043-.109l-.148-.367a36.61 36.61 0 0 1-.934-2.695c-.324-1.078-1.523-1.867-2.645-1.504-1.09.352-1.852 1.492-1.508 2.648m8.369 15.276l7.313 6.441c.848.742 2.227.895 3.047 0 .746-.816.902-2.25 0-3.047l-7.316-6.441c-.844-.742-2.227-.891-3.043 0-.75.816-.906 2.25 0 3.047m11.87 9.133c2.672 1.664 5.66 2.867 8.742 3.504 1.102.223 2.379-.32 2.648-1.504.246-1.078-.324-2.406-1.504-2.648a25.21 25.21 0 0 1-4.191-1.246c-.129-.051-.711-.348-.16-.062-.129-.066-.273-.117-.402-.176l-1.055-.504-1.902-1.078c-.957-.598-2.414-.238-2.949.77-.555 1.059-.25 2.309.773 2.945m13.699 4.768c2.875.715 5.82 1.156 8.777 1.34 1.125.066 2.203-1.043 2.152-2.156-.055-1.223-.945-2.078-2.152-2.152l-2.031-.168-1.016-.117c-.164-.023-.102-.012.188.023l-.312-.043-.465-.07-3.996-.805c-1.09-.273-2.387.348-2.648 1.5-.254 1.113.336 2.359 1.504 2.648m14.097.961a75.12 75.12 0 0 0 10.926 1.938c1.125.117 2.203-1.07 2.156-2.152-.059-1.266-.949-2.027-2.156-2.152l-1.371-.152-.398-.051c.32.039-.34-.047-.398-.055a69.59 69.59 0 0 1-2.555-.418 69.79 69.79 0 0 1-5.055-1.109c-1.09-.281-2.387.355-2.648 1.504-.258 1.121.336 2.348 1.5 2.648m21.229 3.773a187.79 187.79 0 0 0 11.457 1.402c1.125.105 2.203-1.062 2.152-2.152-.055-1.25-.945-2.043-2.152-2.152a180.79 180.79 0 0 1-5.367-.566l-1.312-.164-.703-.094a11.76 11.76 0 0 0-.215-.031l-2.715-.398c-.594-.09-1.121-.094-1.66.219-.445.262-.871.773-.988 1.285-.234 1.031.313 2.469 1.504 2.652m17.366 1.725c4.027.238 8.063.285 12.094.141 1.125-.039 2.207-.961 2.152-2.152-.051-1.133-.945-2.195-2.152-2.152a128.75 128.75 0 0 1-12.094-.141c-1.129-.066-2.203 1.039-2.152 2.152.055 1.223.945 2.082 2.152 2.152m17.52.063a55.51 55.51 0 0 0 10.047-2.687c1.051-.391 1.883-1.477 1.504-2.648-.336-1.031-1.52-1.922-2.648-1.504a55.83 55.83 0 0 1-10.047 2.688c-1.113.188-1.836 1.617-1.504 2.648.391 1.203 1.457 1.703 2.648 1.504m16.504-5.783a72.28 72.28 0 0 0 7.32-4.723c.469-.344.832-.711.988-1.289.145-.512.082-1.199-.215-1.656-.578-.898-1.973-1.488-2.945-.773-2.344 1.719-4.789 3.297-7.32 4.723-.98.555-1.395 1.98-.773 2.945.641.992 1.895 1.363 2.945.773m11.297-8.574a62.95 62.95 0 0 0 6.32-7.535c.305-.43.348-1.168.215-1.66s-.523-1.039-.988-1.285c-.5-.262-1.105-.398-1.66-.219-.562.184-.941.512-1.285.992l-.641.875-.352.473-.164.211c-.172.227.023-.059.094-.117-.273.23-.496.625-.723.906l-.805.973-3.059 3.344c-.789.801-.859 2.254 0 3.043s2.203.855 3.047 0m8.598-11.673l5.035-7.84c.59-.961.242-2.41-.773-2.945-1.051-.555-2.316-.254-2.945.773l-5.031 7.84c-.633.934-.211 2.426.773 2.941 1.086.574 2.27.23 2.941-.77m7.957-10.729c1.188-1.398 2.492-2.691 3.902-3.859l.512-.414.23-.184-.027.023 1.133-.809 2.363-1.469c.98-.551 1.395-1.977.773-2.945-.641-.992-1.898-1.363-2.949-.773-3.387 1.906-6.465 4.422-8.98 7.383-.727.859-.902 2.215 0 3.047.801.734 2.266.914 3.043 0m14.055-9.039c1.676-.691 3.391-1.273 5.141-1.742l2.605-.605 1.316-.242.66-.102.332-.047c.316-.051-.535.066.008-.004.594-.074 1.082-.187 1.523-.629.375-.375.652-.984.629-1.523-.047-1.043-.953-2.305-2.152-2.152-3.855.496-7.605 1.414-11.207 2.895-.543.223-.98.465-1.289.992-.27.461-.383 1.141-.215 1.656.324 1 1.531 1.961 2.648 1.504"/></g><path d="M23.549 307.422h16.887v-29.113h13.102v-12.812h-43.09v12.813H23.55zm74.641 1.047c3.961 0 8.5-1.223 10.891-2.969l-2.098-6.871c-.641.406-1.746.758-2.562.758-1.457 0-2.328-.758-2.969-1.863l-1.805-2.91c-.816-1.75-1.863-2.914-3.496-3.379v-.059c6.582-1.863 10.25-6.113 10.25-11.879 0-8.91-6.348-13.801-17.875-13.801H58.651v41.926h16.887v-13.395h3.613c2.445 0 4.191 1.281 5.414 3.379l1.629 3.145c2.156 4.309 5.824 7.918 11.996 7.918zm-22.652-24.047v-8.445h8.734c3.379 0 5.242 1.516 5.242 4.195 0 2.734-1.863 4.25-5.301 4.25zm38.075 23h16.828v-41.926h-16.828zm23.987 0h16.887v-11.937h11.938c11.531 0 18.344-5.531 18.344-14.848 0-9.492-6.754-15.141-18.168-15.141h-29zm16.887-22.129v-9.605h7.281c3.898 0 6.113 1.688 6.113 4.773s-2.215 4.832-6.113 4.832zm35.687 22.129h36.105V294.32H207.06v-28.824h-16.887zm41.512 0h16.828v-41.926h-16.828zm23.987 0h15.723v-24.457h.117l15.898 24.457h19.504v-41.926h-15.723v24.281h-.055l-15.957-24.281h-19.508zm55.428 0h17.469l2.098-6.406h15.195l2.039 6.406h17.527l-16.945-41.926h-20.09zm22.187-16.305l4.949-14.613h.113l4.836 14.613zm0 0" fill="#ff9100"/></svg>